<svg id="Layer_3" enable-background="new 0 0 64 64" height="512" viewBox="0 0 64 64" width="512" xmlns="http://www.w3.org/2000/svg"><g><path d="m47 45v-10.101c2.279-.465 4-2.484 4-4.899s-1.721-4.434-4-4.899v-10.101c0-.552-.447-1-1-1h-4c-.277 0-.527.112-.708.294l-.091.091c-4.911 4.91-11.44 7.615-18.385 7.615h-6.816c-1.654 0-3 1.346-3 3v10c0 1.654 1.346 3 3 3h1v9c0 1.654 1.346 3 3 3h2c1.654 0 3-1.346 3-3v-1h1c1.654 0 3-1.346 3-3s-1.346-3-3-3h-1v-1.903c6.121.506 11.809 3.126 16.201 7.519l.091.091c.181.18.431.293.708.293h4c.553 0 1-.447 1-1zm-32-10v-1h6v-2h-6v-4h6v-2h-6v-1c0-.551.448-1 1-1h6.816c.061 0 .122-.004.184-.004v12.009c-.061 0-.122-.004-.184-.004h-6.816c-.552-.001-1-.449-1-1.001zm11 7c.552 0 1 .448 1 1s-.448 1-1 1h-1v-2zm-3 5c0 .552-.448 1-1 1h-2c-.552 0-1-.448-1-1v-9h3.816c.061 0 .122.004.184.004zm2-23.092c5.929-.455 11.485-2.755 16-6.625v25.433c-4.515-3.87-10.071-6.17-16-6.625zm20 20.092h-2v-28h2zm4-14c0 1.302-.839 2.402-2 2.816v-5.631c1.161.413 2 1.513 2 2.815z"/><path d="m47 9c0 4.411 3.589 8 8 8 .582 0 1.148-.066 1.695-.185.213.346.431.688.63 1.043l1.744-.978c-.143-.256-.304-.501-.455-.753 2.598-1.322 4.386-4.017 4.386-7.127 0-4.411-3.589-8-8-8-3.109 0-5.803 1.787-7.126 4.384-.419-.251-.838-.504-1.268-.734l-.943 1.764c.517.276 1.027.576 1.525.882-.121.549-.188 1.119-.188 1.704zm8-6c3.309 0 6 2.691 6 6s-2.691 6-6 6-6-2.691-6-6 2.691-6 6-6z"/><path d="m5.384 16.127c-.25.418-.502.836-.733 1.267l1.764.944c.278-.519.575-1.026.883-1.525.548.12 1.117.187 1.702.187 4.411 0 8-3.589 8-8 0-.582-.066-1.147-.184-1.694.347-.214.691-.434 1.041-.629l-.975-1.746c-.253.141-.502.305-.754.456-1.323-2.599-4.018-4.387-7.128-4.387-4.411 0-8 3.589-8 8 0 3.109 1.787 5.803 4.384 7.127zm3.616-13.127c3.309 0 6 2.691 6 6s-2.691 6-6 6-6-2.691-6-6 2.691-6 6-6z"/><path d="m58.616 47.873c.25-.418.502-.836.733-1.266l-1.764-.945c-.278.519-.575 1.026-.882 1.525-.549-.12-1.118-.187-1.703-.187-4.411 0-8 3.589-8 8 0 .582.066 1.147.184 1.694-.346.213-.688.432-1.043.631l.979 1.744c.257-.144.5-.304.752-.455 1.323 2.598 4.018 4.386 7.128 4.386 4.411 0 8-3.589 8-8 0-3.109-1.787-5.803-4.384-7.127zm-3.616 13.127c-3.309 0-6-2.691-6-6s2.691-6 6-6 6 2.691 6 6-2.691 6-6 6z"/><path d="m17 55c0-4.411-3.589-8-8-8-.582 0-1.148.066-1.695.185-.213-.346-.432-.689-.63-1.042l-1.745.976c.143.255.305.501.456.754-2.599 1.323-4.386 4.017-4.386 7.127 0 4.411 3.589 8 8 8 3.109 0 5.803-1.787 7.126-4.383.419.25.836.503 1.267.734l.945-1.764c-.519-.278-1.026-.575-1.526-.883.121-.55.188-1.119.188-1.704zm-8 6c-3.309 0-6-2.691-6-6s2.691-6 6-6 6 2.691 6 6-2.691 6-6 6z"/><path d="m4.368 40.833c-.196-.615-.373-1.24-.523-1.857l-1.943.477c.162.661.352 1.331.562 1.99z"/><path d="m1.476 37.431 1.969-.348c-.112-.64-.204-1.283-.271-1.911l-1.988.213c.071.673.168 1.361.29 2.046z"/><path d="m1.125 29.199 1.992.178c.058-.646.137-1.287.236-1.919l-1.977-.31c-.105.683-.19 1.373-.251 2.051z"/><path d="m5.789 44.426c-.275-.581-.532-1.172-.771-1.773l-1.859.736c.253.64.53 1.277.823 1.895z"/><path d="m1.767 25.117 1.951.443c.144-.632.307-1.255.489-1.87l-1.916-.571c-.195.653-.371 1.325-.524 1.998z"/><path d="m5.56 20.072-1.822-.825c-.279.616-.545 1.259-.788 1.911l1.873.701c.228-.609.475-1.211.737-1.787z"/><path d="m3.025 33.244c-.016-.412-.025-.827-.025-1.244 0-.231.003-.461.009-.691l-2-.049c-.006.246-.009.492-.009.74 0 .444.009.886.027 1.326z"/><path d="m38.974 60.156.479 1.941c.665-.164 1.334-.353 1.989-.562l-.609-1.904c-.612.195-1.238.372-1.859.525z"/><path d="m31.31 60.991-.049 2c.245.006.492.009.741.009.443-.001.885-.01 1.324-.028l-.082-1.998c-.645.026-1.294.034-1.934.017z"/><path d="m27.148 62.623c.683.106 1.373.191 2.051.252l.178-1.992c-.646-.058-1.286-.137-1.92-.236z"/><path d="m35.174 60.828.213 1.988c.673-.072 1.361-.17 2.046-.291l-.348-1.969c-.64.113-1.283.205-1.911.272z"/><path d="m19.247 60.265c.63.284 1.272.549 1.912.787l.697-1.875c-.597-.222-1.198-.47-1.787-.734z"/><path d="m42.654 58.979.732 1.861c.637-.251 1.274-.527 1.896-.823l-.857-1.807c-.581.277-1.177.536-1.771.769z"/><path d="m23.119 61.709c.65.194 1.322.37 1.998.524l.443-1.951c-.632-.143-1.256-.307-1.869-.489z"/><path d="m61.051 42.842-1.873-.701c-.227.605-.475 1.207-.737 1.788l1.822.824c.281-.621.546-1.265.788-1.911z"/><path d="m62.233 38.883-1.951-.443c-.143.632-.307 1.256-.489 1.869l1.916.572c.194-.651.37-1.322.524-1.998z"/><path d="m62.524 26.569-1.969.348c.113.642.204 1.285.271 1.912l1.988-.213c-.07-.672-.168-1.361-.29-2.047z"/><path d="m62.875 34.801-1.992-.178c-.058.646-.137 1.286-.236 1.92l1.977.309c.105-.683.19-1.373.251-2.051z"/><path d="m60.975 30.755c.016.413.025.828.025 1.245 0 .231-.003.461-.009.691l2 .049c.006-.246.009-.492.009-.74 0-.444-.009-.887-.027-1.327z"/><path d="m58.211 19.575c.275.581.532 1.172.771 1.773l1.859-.736c-.253-.64-.53-1.277-.823-1.894z"/><path d="m62.099 24.549c-.162-.662-.352-1.332-.562-1.991l-1.904.609c.196.615.373 1.24.523 1.857z"/><path d="m36.853 1.378c-.679-.107-1.368-.192-2.051-.253l-.18 1.992c.646.058 1.286.137 1.92.237z"/><path d="m28.829 3.171-.217-1.988c-.685.075-1.372.173-2.044.292l.348 1.97c.631-.112 1.27-.203 1.913-.274z"/><path d="m44.752 3.736c-.632-.285-1.274-.549-1.911-.787l-.699 1.874c.606.226 1.202.472 1.788.736z"/><path d="m21.347 5.019-.734-1.86c-.634.25-1.271.527-1.896.824l.857 1.807c.584-.278 1.181-.537 1.773-.771z"/><path d="m25.025 3.844-.479-1.941c-.665.164-1.334.353-1.989.562l.609 1.905c.612-.196 1.238-.373 1.859-.526z"/><path d="m40.882 2.292c-.655-.196-1.328-.373-2-.524l-.441 1.95c.628.143 1.256.307 1.867.49z"/><path d="m31.969 3c.248.003.483.003.724.008l.045-1.999c-.246-.006-.491-.009-.737-.009-.463-.01-.89.009-1.329.028l.084 1.998c.402-.017.806-.026 1.213-.026z"/></g></svg>