<?xml version="1.0"?>
<svg xmlns="http://www.w3.org/2000/svg" viewBox="0 0 64 64" width="512" height="512"><g id="Computer_tablet_smartphone" data-name="Computer tablet smartphone"><rect x="31" y="18" width="2" height="2"/><rect x="27" y="18" width="2" height="2"/><rect x="35" y="18" width="2" height="2"/><rect x="11" y="56" width="2" height="2"/><rect x="15" y="56" width="2" height="2"/><rect x="19" y="56" width="2" height="2"/><path d="M59,2H5A3,3,0,0,0,2,5V57a5.006,5.006,0,0,0,5,5H25a5.006,5.006,0,0,0,5-5V56H42v1a5.006,5.006,0,0,0,5,5H57a5.006,5.006,0,0,0,5-5V5A3,3,0,0,0,59,2ZM4,5A1,1,0,0,1,5,4H59a1,1,0,0,1,1,1V30.994a4.944,4.944,0,0,0-1-.562V5H5V22.422c-.038.016-.074.035-.111.052-.093.043-.855.5-.889.524ZM50,32h4v1H50ZM7,22V7H57V30H47a5.009,5.009,0,0,0-4.9,4H30V27a5.006,5.006,0,0,0-5-5Zm13,2v1a1,1,0,0,1-1,1H13a1,1,0,0,1-1-1V24ZM30,36H42v6H30ZM28,57a3,3,0,0,1-3,3H7a3,3,0,0,1-3-3V27a2.994,2.994,0,0,1,2.271-2.907A2.634,2.634,0,0,1,7,24h3v1a3,3,0,0,0,3,3h6a3,3,0,0,0,3-3V24h3a3,3,0,0,1,3,3Zm2-3V44h6.333L40.5,54Zm8.5-10H42v8.4ZM60,57a3,3,0,0,1-3,3H47a3,3,0,0,1-3-3V35a3,3,0,0,1,3-3h1v1a2,2,0,0,0,2,2h4a2,2,0,0,0,2-2V32h1a2.642,2.642,0,0,1,.712.091l.035.007.014,0A2.985,2.985,0,0,1,60,35Z"/><rect x="51" y="56" width="2" height="2"/><rect x="55" y="56" width="2" height="2"/><rect x="47" y="56" width="2" height="2"/></g></svg>
